<svg xmlns="http://www.w3.org/2000/svg" xmlns:xlink="http://www.w3.org/1999/xlink" width="300" zoomAndPan="magnify" viewBox="0 0 224.87999 225" height="300" preserveAspectRatio="xMidYMid meet" version="1.0"><defs><clipPath id="9bfebd221b"><path d="M 22.488281 46.496094 L 202.390625 46.496094 L 202.390625 178.425781 L 22.488281 178.425781 Z M 22.488281 46.496094 " clip-rule="nonzero"/></clipPath></defs><g clip-path="url(#9bfebd221b)"><path fill="#000000" d="M 25.472656 47.34375 L 25.34375 47.417969 L 25.246094 47.480469 C 24.816406 47.761719 24.40625 48.097656 24.046875 48.5 L 23.988281 48.566406 L 23.886719 48.679688 L 23.785156 48.804688 C 22.972656 49.828125 22.488281 51.117188 22.488281 52.527344 L 22.488281 172.398438 C 22.488281 173.441406 22.75 174.417969 23.21875 175.269531 L 23.296875 175.40625 L 23.359375 175.507812 C 23.578125 175.867188 23.835938 176.214844 24.144531 176.535156 L 24.195312 176.589844 L 24.304688 176.695312 L 24.414062 176.796875 L 24.5625 176.929688 L 24.671875 177.027344 L 24.765625 177.105469 C 24.964844 177.257812 25.175781 177.402344 25.390625 177.535156 L 25.535156 177.613281 L 25.667969 177.691406 L 25.796875 177.757812 L 25.882812 177.800781 L 26.015625 177.863281 L 26.054688 177.875 C 26.800781 178.207031 27.621094 178.390625 28.484375 178.390625 L 196.394531 178.390625 C 197.257812 178.390625 198.082031 178.207031 198.824219 177.875 L 198.867188 177.863281 L 199.125 177.738281 L 199.253906 177.667969 L 199.382812 177.601562 L 199.488281 177.535156 C 199.707031 177.402344 199.914062 177.257812 200.113281 177.105469 L 200.210938 177.027344 L 200.316406 176.929688 L 200.425781 176.832031 L 200.574219 176.695312 L 200.683594 176.589844 L 200.738281 176.535156 C 201.042969 176.214844 201.300781 175.867188 201.523438 175.507812 L 201.601562 175.382812 L 201.660156 175.269531 C 202.128906 174.417969 202.390625 173.441406 202.390625 172.398438 L 202.390625 52.527344 C 202.390625 51.117188 201.90625 49.828125 201.097656 48.804688 L 200.996094 48.679688 L 200.894531 48.566406 L 200.832031 48.5 C 200.472656 48.097656 200.066406 47.761719 199.632812 47.480469 L 199.507812 47.402344 L 199.40625 47.34375 C 198.519531 46.828125 197.492188 46.53125 196.394531 46.53125 L 28.484375 46.53125 C 27.386719 46.53125 26.363281 46.828125 25.472656 47.34375 Z M 132.695312 105.367188 L 115.925781 117.339844 C 113.84375 118.828125 111.035156 118.828125 108.957031 117.339844 L 92.183594 105.367188 L 41.289062 166.40625 L 183.59375 166.40625 Z M 34.480469 155.84375 L 82.394531 98.378906 L 34.480469 64.171875 Z M 142.484375 98.378906 L 190.398438 155.84375 L 190.398438 64.171875 Z M 112.441406 105.097656 L 177.683594 58.519531 L 47.195312 58.519531 Z M 112.441406 105.097656 " fill-opacity="1" fill-rule="evenodd"/></g></svg>